<?xml version="1.0" standalone="no"?>
<!DOCTYPE svg PUBLIC "-//W3C//DTD SVG 20010904//EN"
 "http://www.w3.org/TR/2001/REC-SVG-20010904/DTD/svg10.dtd">
<svg version="1.0" xmlns="http://www.w3.org/2000/svg"
 width="512.000000pt" height="512.000000pt" viewBox="0 0 512.000000 512.000000"
 preserveAspectRatio="xMidYMid meet">
<metadata>
Created by potrace 1.14, written by Peter Selinger 2001-2017
</metadata>
<g transform="translate(0.000000,512.000000) scale(0.100000,-0.100000)"
fill="#000000" stroke="none">
<path d="M2379 5116 c-2 -2 -35 -6 -74 -10 -38 -3 -97 -10 -130 -16 -33 -6
-76 -13 -95 -16 -75 -12 -300 -74 -395 -109 -134 -50 -280 -118 -395 -185
l-95 -55 -357 0 c-357 0 -358 0 -380 -23 -23 -22 -23 -23 -23 -370 l0 -348
-35 -54 c-208 -325 -345 -716 -387 -1105 -15 -142 -8 -506 11 -620 3 -16 8
-43 10 -60 18 -114 65 -314 86 -360 5 -11 12 -31 16 -45 14 -51 78 -208 125
-305 l49 -100 0 -257 0 -258 -60 0 c-70 0 -111 -17 -128 -55 -23 -51 -9 -101
38 -128 25 -15 68 -17 350 -17 199 0 329 4 340 10 16 9 27 4 57 -23 175 -156
456 -325 711 -426 93 -37 269 -95 322 -105 14 -3 57 -12 96 -20 39 -9 88 -18
110 -21 21 -4 50 -8 64 -10 159 -27 535 -27 710 0 202 32 496 112 638 176 242
108 474 252 656 405 30 26 43 31 57 24 10 -6 152 -10 339 -10 348 0 364 2 388
55 15 33 15 57 0 90 -17 38 -58 55 -128 55 l-60 0 0 260 0 259 40 78 c56 112
135 303 145 356 2 9 6 20 9 25 7 12 54 193 60 236 4 21 8 41 10 45 6 10 19 99
33 226 10 91 10 409 1 505 -9 85 -22 172 -37 245 -6 28 -13 61 -15 75 -32 159
-115 390 -211 581 -46 92 -73 139 -146 259 -14 21 -16 75 -15 363 1 331 1 338
-20 365 l-22 27 -358 0 -359 0 -60 37 c-270 164 -612 284 -945 333 -19 3 -53
7 -75 11 -44 6 -460 15 -466 10z"/>
</g>
</svg>
